<?xml version="1.0" encoding="UTF-8"?>
<svg xmlns="http://www.w3.org/2000/svg" version="1.1" viewBox="0 0 345 345">
  <defs>
    <style>
      .cls-1 {
        fill: #ED5829;
      }

      .cls-2 {
        fill: #fff;
      }

      .pulse {
            animation: pulse-animation 2s infinite;
        }

        @keyframes pulse-animation {
            0% {
                transform: scale(1);
                opacity: 1;
            }
            50% {
                transform: scale(1.2);
                opacity: 0.6;
            }
            100% {
                transform: scale(1);
                opacity: 1;
            }
        }
    </style>
  </defs>
  <!-- Generator: Adobe Illustrator 28.7.1, SVG Export Plug-In . SVG Version: 1.2.0 Build 142)  -->
  <g>
    <g id="Capa_1">
      <path class="cls-1 pulse" d="M331.4,105.5l-36.8-27.9-17.9-42.6-45.9-5.8L194,1.3l-42.6,17.9-45.9-5.8-27.9,36.8-42.6,17.9-5.8,45.9L1.3,151l17.9,42.6-5.8,45.9,36.8,27.9,17.9,42.6,45.9,5.8,36.8,27.9,42.6-17.9,45.9,5.8,27.9-36.8,42.6-17.9,5.8-45.9,27.9-36.8-17.9-42.6,5.8-45.8h0Z"/>
      <g>
        <g>
          <path class="cls-2 pulse" d="M73.1,145.2l-12.9-1.6,1.4-11,38,4.8-1.4,11-12.9-1.6-4.1,32.6-12.3-1.5,4.1-32.6Z"/>
          <path class="cls-2 pulse" d="M115.8,150.6l-.6,4.9,20.7,2.6-1.4,11-20.7-2.6-.7,5.8,22.7,2.9-1.4,11-35-4.4,5.5-43.5,35,4.4-1.4,11-22.7-2.9Z"/>
          <path class="cls-2 pulse" d="M146.1,143.2l12.3,1.5,9,22.2,14.3-19.3,12.3,1.5-5.5,43.5-12.3-1.5,2.9-23.3-14.3,19.3-9-22.2-2.9,23.3-12.3-1.5,5.5-43.5Z"/>
          <path class="cls-2 pulse" d="M201.6,150.2l20.8,2.6c9.8,1.2,15.9,8.4,14.7,17.3s-8.8,14.3-18.6,13.1l-8.5-1.1-1.6,13.1-12.3-1.5,5.5-43.5ZM219,172c2.9.4,5.2-1.1,5.5-3.4s-1.6-4.3-4.5-4.7l-7.5-.9-1,8.1,7.5.9Z"/>
          <path class="cls-2 pulse" d="M239.6,177.1c1.5-12.2,13.7-21.1,26.5-19.5s22.4,13.2,20.9,25.5c-1.5,12.2-13.7,21.2-26.5,19.6-12.9-1.6-22.4-13.3-20.9-25.5ZM274.3,181.4c.8-6.1-3.6-12-9.6-12.7s-11.7,3.8-12.4,10,3.6,12,9.6,12.8,11.7-3.8,12.5-10Z"/>
        </g>
        <g>
          <path class="cls-2 pulse" d="M78.4,209.5l-1,7.8-23.2-2.9,3.9-31.1,8.8,1.1-2.9,23.2,14.5,1.8Z"/>
          <path class="cls-2 pulse" d="M85.2,186.7l8.8,1.1-3.9,31.1-8.8-1.1,3.9-31.1Z"/>
          <path class="cls-2 pulse" d="M99.6,188.5l8.8,1.1,6.5,15.9,10.2-13.8,8.8,1.1-3.9,31.1-8.8-1.1,2.1-16.6-10.2,13.8-6.5-15.9-2.1,16.6-8.8-1.1,3.9-31.1Z"/>
          <path class="cls-2 pulse" d="M139.3,193.5l8.8,1.1-3.9,31.1-8.8-1.1,3.9-31.1Z"/>
          <path class="cls-2 pulse" d="M160.2,204.1l-9.2-1.2,1-7.8,27.1,3.4-1,7.8-9.2-1.2-2.9,23.2-8.8-1.1,2.9-23.2Z"/>
          <path class="cls-2 pulse" d="M197.3,228.1l-10.8-1.4-2.1,4-9.9-1.2,15.8-29.6,9.9,1.2,8,32.6-9.9-1.2-1.1-4.4ZM195.6,221.3l-1.9-7.9-3.9,7.2,5.8.7Z"/>
          <path class="cls-2 pulse" d="M214.9,203l11.6,1.5c10.9,1.4,17.7,8.7,16.6,17.8s-9.6,14.6-20.5,13.2l-11.6-1.5,3.9-31.1ZM225,227.7c4.7.6,8.4-2.2,9-6.6s-2.4-8-7.1-8.6l-4.2-.5-1.9,15.1,4.2.5Z"/>
          <path class="cls-2 pulse" d="M246.1,222.7c1.1-8.7,9.7-15.1,18.9-13.9s16,9.4,14.9,18.2c-1.1,8.7-9.8,15.1-18.9,14s-16-9.5-14.9-18.2ZM270.9,225.8c.6-4.4-2.6-8.5-6.8-9.1s-8.3,2.7-8.9,7.1,2.6,8.6,6.8,9.1,8.3-2.7,8.9-7.1Z"/>
        </g>
        <g>
          <path class="cls-2 pulse" d="M66.6,107.4l8.5,1.1c4,.5,6.6,3.5,6.2,7.2s-3.7,5.9-7.7,5.4l-3.9-.5-.7,5.7-4.6-.6,2.3-18.3ZM73.6,116.8c1.6.2,2.8-.5,3-1.8s-.9-2.3-2.4-2.5l-3.5-.4-.5,4.3,3.5.4Z"/>
          <path class="cls-2 pulse" d="M92.8,129.3l-3.3-6.2-2.2-.3-.7,5.7-4.6-.6,2.3-18.3,8.5,1.1c4,.5,6.6,3.5,6.2,7.2s-2.1,4.6-4.6,5.2l3.6,6.8-5.2-.6ZM87.8,118.6l3.5.4c1.6.2,2.8-.5,3-1.8s-.9-2.3-2.4-2.5l-3.5-.4-.5,4.3Z"/>
          <path class="cls-2 pulse" d="M100.8,121c.6-5.1,5.7-8.9,11-8.2s9.3,5.6,8.7,10.7-5.7,8.9-11.1,8.2-9.3-5.6-8.6-10.7ZM115.8,122.8c.4-2.9-1.7-5.6-4.5-6s-5.5,1.8-5.8,4.7,1.7,5.7,4.5,6,5.5-1.8,5.8-4.7Z"/>
          <path class="cls-2 pulse" d="M124.4,114.6l4.6.6,4.1,10.2,6.5-8.9,4.6.6-2.3,18.3-4.6-.6,1.3-10.6-6.5,8.9-4.1-10.2-1.3,10.6-4.6-.6,2.3-18.3Z"/>
          <path class="cls-2 pulse" d="M145.7,126.6c.6-5.1,5.7-8.9,11-8.2s9.3,5.6,8.7,10.7-5.7,8.9-11.1,8.2-9.3-5.6-8.6-10.7ZM160.7,128.5c.4-2.9-1.7-5.6-4.5-6s-5.5,1.8-5.8,4.7,1.7,5.7,4.5,6,5.5-1.8,5.8-4.7Z"/>
          <path class="cls-2 pulse" d="M180.7,134.4l2.9,3.3c-1.9,1.6-4.3,2.4-6.9,2.3l-.5.8c1.2.2,1.9,1,1.7,2.1s-1.5,2.2-3.2,1.9-2-.6-2.5-1.1l1-1.6c.4.4,1,.7,1.5.8s1.1-.1,1.1-.6-.2-.7-.7-.7-.6,0-.8.1l-.6-.7.8-1.4c-4.7-1.3-7.9-5.8-7.3-10.5s5.7-8.9,11-8.2,5.3,1.9,6.9,4.1l-3.7,2.5c-.8-1.3-2.2-2.3-3.7-2.5-2.8-.4-5.5,1.8-5.8,4.7s1.7,5.7,4.5,6,3.1-.4,4.2-1.5Z"/>
          <path class="cls-2 pulse" d="M197.8,139.7l-7.2-.9-1.4,2.5-5.1-.6,9.5-17.4,5.1.6,4.9,19.2-5.1-.6-.7-2.8ZM193.6,121.9l-2.1-.6c.6-2.4,1.7-3.5,3.5-3.3s2.6,1.6,3.4,1.7,1-.3,1.2-1.1l2.1.6c-.6,2.4-1.7,3.5-3.5,3.2s-2.6-1.6-3.4-1.7-.9.3-1.2,1.1ZM196.9,136l-1.5-5.9-2.9,5.3,4.4.6Z"/>
          <path class="cls-2 pulse" d="M206,134.2c.6-5.1,5.7-8.9,11-8.2s9.3,5.6,8.7,10.7-5.7,8.9-11,8.2-9.3-5.6-8.6-10.7ZM221,136.1c.4-2.9-1.7-5.6-4.5-6s-5.5,1.8-5.8,4.7,1.7,5.7,4.5,6,5.5-1.8,5.8-4.7Z"/>
          <path class="cls-2 pulse" d="M236.9,128.8l8.5,1.1c4,.5,6.6,3.5,6.2,7.2s-3.7,5.9-7.7,5.4l-3.9-.5-.7,5.7-4.6-.6,2.3-18.3ZM243.9,138.2c1.6.2,2.8-.5,3-1.8s-.9-2.3-2.4-2.5l-3.5-.4-.5,4.3,3.5.4Z"/>
          <path class="cls-2 pulse" d="M252.8,140c.6-5.1,5.7-8.9,11-8.2s9.3,5.6,8.7,10.7-5.7,8.9-11,8.2-9.3-5.6-8.6-10.7ZM267.8,141.9c.4-2.9-1.7-5.6-4.5-6s-5.5,1.8-5.8,4.7,1.7,5.7,4.5,6,5.5-1.8,5.8-4.7Z"/>
          <path class="cls-2 pulse" d="M284.8,153.4l-3.3-6.2-2.2-.3-.7,5.7-4.6-.6,2.3-18.3,8.5,1.1c4,.5,6.6,3.5,6.2,7.2s-2.1,4.6-4.6,5.2l3.6,6.8-5.2-.6ZM279.8,142.7l3.5.4c1.6.2,2.8-.5,3-1.8s-.9-2.3-2.4-2.5l-3.5-.4-.5,4.3Z"/>
        </g>
      </g>
    </g>
  </g>
</svg>
